<svg xmlns="http://www.w3.org/2000/svg" width="512" height="512" viewBox="0 0 512 512">
  <!-- Placeholder SVG for Tracking - Replace with Freepik illustration -->
  <rect width="100%" height="100%" fill="#ffffff" />
  <rect x="100" y="150" width="312" height="200" rx="10" fill="#F9FBE7" stroke="#BDBDBD" stroke-width="2" />
  
  <!-- Map background -->
  <path d="M100,150 L412,150 L412,350 L100,350 Z" fill="#F5F5F5" />
  
  <!-- Roads -->
  <path d="M150,170 L150,330 M200,170 L200,330 M250,170 L250,330 M300,170 L300,330 M350,170 L350,330" stroke="#E0E0E0" stroke-width="4" />
  <path d="M120,200 L400,200 M120,250 L400,250 M120,300 L400,300" stroke="#E0E0E0" stroke-width="4" />
  
  <!-- Car on map -->
  <circle cx="250" cy="250" r="15" fill="#E89C08" />
  <path d="M250,250 L280,220" stroke="#E89C08" stroke-width="3" />
  
  <!-- Route path -->
  <path d="M200,200 C220,220 240,230 250,250 C260,270 280,290 300,300" stroke="#FF5722" stroke-width="3" stroke-dasharray="5,3" fill="none" />
  
  <!-- Location pins -->
  <circle cx="200" cy="200" r="7" fill="#4CAF50" />
  <circle cx="300" cy="300" r="7" fill="#F44336" />
  
  <!-- GPS Signal -->
  <circle cx="250" cy="250" r="30" fill="transparent" stroke="#E89C08" stroke-width="2" opacity="0.5" />
  <circle cx="250" cy="250" r="45" fill="transparent" stroke="#E89C08" stroke-width="2" opacity="0.3" />
  <circle cx="250" cy="250" r="60" fill="transparent" stroke="#E89C08" stroke-width="2" opacity="0.2" />
  
  <text x="256" y="380" font-family="Arial" font-size="20" text-anchor="middle" fill="#333333">Replace with Freepik SVG</text>
</svg>
