<svg xmlns="http://www.w3.org/2000/svg" width="512" height="512" viewBox="0 0 512 512">
  <!-- Placeholder SVG for Car with Advertising - Replace with Freepik illustration -->
  <rect width="100%" height="100%" fill="#ffffff" />
  <path d="M400,300 L350,300 L350,220 L400,220 Z" fill="#E89C08" />
  <path d="M350,300 L100,300 L120,220 L350,220 Z" fill="#E89C08" />
  <rect x="120" y="250" width="20" height="20" rx="10" fill="#333333" />
  <rect x="300" y="250" width="20" height="20" rx="10" fill="#333333" />
  <path d="M90,280 L100,280 L100,240 L90,240 Z" fill="#FF5722" />
  <path d="M175,220 L275,220 L255,180 L195,180 Z" fill="#E89C08" />
  <path d="M150,180 L195,180 L195,150 L170,150 Z" fill="#E89C08" />
  <path d="M255,180 L280,150 L230,150 L195,180 Z" fill="#E89C08" />
  <rect x="200" y="100" width="60" height="60" rx="5" fill="#FF5722" />
  <text x="256" y="350" font-family="Arial" font-size="20" text-anchor="middle" fill="#333333">Replace with Freepik SVG</text>
</svg>
